<svg width="80" height="80" viewBox="0 0 80 80" fill="none" xmlns="http://www.w3.org/2000/svg">
<path d="M27.6332 37.6334C27.3297 37.9504 27.0918 38.3242 26.9332 38.7334C26.5998 39.545 26.5998 40.4552 26.9332 41.2668C27.0918 41.6759 27.3297 42.0497 27.6332 42.3667L37.6332 52.3667C38.2609 52.9944 39.1122 53.3471 39.9998 53.3471C40.8875 53.3471 41.7388 52.9944 42.3665 52.3667C42.9942 51.7391 43.3468 50.8878 43.3468 50.0001C43.3468 49.1124 42.9942 48.2611 42.3665 47.6334L38.0332 43.3334H49.9998C50.8839 43.3334 51.7317 42.9822 52.3569 42.3571C52.982 41.732 53.3332 40.8841 53.3332 40.0001C53.3332 39.116 52.982 38.2682 52.3569 37.6431C51.7317 37.0179 50.8839 36.6667 49.9998 36.6667H38.0332L42.3665 32.3667C42.6789 32.0569 42.9269 31.6882 43.0961 31.282C43.2654 30.8758 43.3525 30.4401 43.3525 30.0001C43.3525 29.56 43.2654 29.1244 43.0961 28.7182C42.9269 28.312 42.6789 27.9433 42.3665 27.6334C42.0566 27.321 41.688 27.073 41.2818 26.9038C40.8756 26.7345 40.4399 26.6474 39.9998 26.6474C39.5598 26.6474 39.1241 26.7345 38.7179 26.9038C38.3117 27.073 37.943 27.321 37.6332 27.6334L27.6332 37.6334ZM6.6665 40.0001C6.6665 46.5928 8.62147 53.0375 12.2842 58.5191C15.9469 64.0007 21.1529 68.2732 27.2437 70.7961C33.3346 73.319 40.0368 73.9791 46.5028 72.6929C52.9689 71.4068 58.9083 68.2321 63.5701 63.5703C68.2318 58.9086 71.4065 52.9691 72.6927 46.5031C73.9789 40.0371 73.3187 33.3348 70.7958 27.244C68.2729 21.1531 64.0005 15.9471 58.5188 12.2844C53.0372 8.62171 46.5925 6.66675 39.9998 6.66675C35.6224 6.66675 31.2879 7.52894 27.2437 9.2041C23.1995 10.8793 19.5249 13.3346 16.4296 16.4299C10.1784 22.6811 6.6665 31.1595 6.6665 40.0001ZM66.6665 40.0001C66.6665 45.2743 65.1025 50.43 62.1724 54.8153C59.2422 59.2006 55.0774 62.6185 50.2047 64.6369C45.332 66.6552 39.9703 67.1833 34.7974 66.1544C29.6246 65.1254 24.8731 62.5857 21.1437 58.8563C17.4143 55.1269 14.8745 50.3753 13.8456 45.2025C12.8166 40.0297 13.3447 34.6679 15.3631 29.7952C17.3814 24.9225 20.7993 20.7577 25.1846 17.8276C29.5699 14.8974 34.7257 13.3334 39.9998 13.3334C47.0723 13.3334 53.8551 16.1429 58.856 21.1439C63.857 26.1449 66.6665 32.9276 66.6665 40.0001Z" fill="#111213"/>
</svg>
