<svg width="54" height="56" viewBox="0 0 54 56" fill="none" xmlns="http://www.w3.org/2000/svg">
<path d="M53.2418 51.279L43.2307 40.9733C47.1167 35.9448 48.9986 29.5622 48.4894 23.138C47.9802 16.7137 45.1187 10.7361 40.4933 6.43419C35.8678 2.13229 29.83 -0.166878 23.6213 0.00944025C17.4126 0.185759 11.5049 2.82416 7.11309 7.38214C2.72123 11.9401 0.178988 18.0712 0.00909619 24.5148C-0.160796 30.9583 2.05458 37.2245 6.19968 42.0249C10.3448 46.8253 16.1046 49.7951 22.2947 50.3235C28.4848 50.8519 34.6347 48.8989 39.48 44.8659L49.4101 55.1716C49.6609 55.4341 49.9594 55.6424 50.2882 55.7846C50.617 55.9268 50.9697 56 51.3259 56C51.6821 56 52.0348 55.9268 52.3637 55.7846C52.6925 55.6424 52.9909 55.4341 53.2418 55.1716C53.7281 54.6494 54 53.9516 54 53.2253C54 52.499 53.7281 51.8012 53.2418 51.279ZM24.342 44.8659C20.6061 44.8659 16.9542 43.7162 13.8479 41.5622C10.7417 39.4082 8.32066 36.3465 6.89101 32.7645C5.46136 29.1825 5.0873 25.2409 5.81613 21.4383C6.54496 17.6356 8.34394 14.1427 10.9856 11.4011C13.6272 8.65955 16.9929 6.79252 20.6569 6.03613C24.321 5.27973 28.1189 5.66794 31.5704 7.15166C35.0219 8.63538 37.9719 11.148 40.0474 14.3717C42.1229 17.5955 43.2307 21.3855 43.2307 25.2627C43.2307 30.4618 41.2407 35.448 37.6983 39.1243C34.156 42.8006 29.3516 44.8659 24.342 44.8659Z" fill="#FFCC00"/>
</svg>
