<svg width="94" height="84" viewBox="0 0 94 84" fill="none" xmlns="http://www.w3.org/2000/svg">
<path d="M85.7537 20.9306L93.4032 3.18938C93.6598 2.59479 93.4989 1.92285 92.9948 1.47166C92.4906 1.02209 91.7352 0.878679 91.0684 1.10749L71.1758 7.92681C70.9463 8.00576 70.7312 8.12662 70.5451 8.29098L62.6119 15.3649C60.7452 14.5173 58.7881 13.8228 56.7713 13.2975L54.3896 7.32577C54.133 6.68283 53.4517 6.25421 52.6873 6.25421L41.841 6.26065C41.0766 6.26065 40.3953 6.68928 40.1405 7.33221L37.7606 13.2975C35.4186 13.9066 33.1615 14.7397 31.0273 15.7822L24.6139 13.0639C23.9236 12.7706 23.1013 12.8979 22.561 13.3797L14.8917 20.2183C14.3513 20.7001 14.2086 21.4333 14.5375 22.0488L17.5861 27.7676C16.4169 29.6706 15.4826 31.6832 14.7995 33.7716L8.10238 35.8953C7.38134 36.1241 6.90065 36.7316 6.90065 37.4149L6.90788 47.0863C6.90788 47.7679 7.38857 48.3754 8.1096 48.6026L14.7995 50.7248C15.3886 52.5247 16.1657 54.2682 17.1162 55.9343L2.27265 69.1669C0.575782 70.68 0.575782 73.1437 2.27265 74.6568L10.9178 82.3656C11.7672 83.1229 12.8822 83.5 13.9953 83.5C15.1085 83.5 16.2253 83.1213 17.0747 82.3656L31.9164 69.1314C33.785 69.979 35.7402 70.6719 37.7588 71.1972L40.1405 77.1689C40.3971 77.8119 41.0784 78.2405 41.8428 78.2405L52.6891 78.2341C53.4535 78.2341 54.1348 77.8054 54.3896 77.1625L56.7695 71.1972C59.1115 70.5881 61.3686 69.755 63.5028 68.7125L69.9162 71.4308C70.6065 71.7241 71.4288 71.5968 71.9691 71.115L79.6384 64.2764C80.1788 63.7946 80.3215 63.0614 79.9926 62.4459L76.944 56.7271C78.1132 54.8241 79.0475 52.8115 79.7306 50.7231L86.4277 48.5994C87.1488 48.3706 87.6295 47.7631 87.6295 47.0798L87.624 37.4084C87.624 36.7268 87.1433 36.1193 86.4223 35.8921L79.7324 33.7699C79.1433 31.9717 78.3644 30.2265 77.4139 28.562L85.3471 21.4881C85.5296 21.3253 85.6669 21.1336 85.7537 20.9306ZM14.5194 80.0871C14.2303 80.3449 13.7604 80.3449 13.4731 80.0871L4.8279 72.3783C4.53876 72.1205 4.53876 71.7032 4.8279 71.4454L14.3748 62.9325C14.3044 63.4175 14.4869 63.917 14.8899 64.2764L22.5592 71.115C22.9622 71.4744 23.5224 71.6355 24.0663 71.5743L14.5194 80.0871ZM77.6344 36.527L84.0098 38.5493L84.0153 45.9471L77.6344 47.9709C77.0705 48.1498 76.6423 48.5655 76.4923 49.0828C75.7965 51.4612 74.7394 53.7396 73.3515 55.8521C73.0497 56.313 73.0226 56.877 73.2792 57.3588L76.1833 62.8068L70.3174 68.0373L64.2076 65.4478C63.6672 65.219 63.0348 65.2432 62.5179 65.5123C60.1488 66.7498 57.5936 67.6925 54.9263 68.3129C54.348 68.4482 53.88 68.8285 53.6794 69.3312L51.4115 75.0161L43.115 75.021L40.8453 69.3312C40.6447 68.8285 40.1785 68.4466 39.5984 68.3129C36.9311 67.6925 34.3759 66.7498 32.0068 65.5123C31.4917 65.2432 30.8574 65.219 30.3171 65.4478L24.2073 68.0373L18.3414 62.8068L21.2455 57.3588C21.5021 56.877 21.475 56.313 21.1732 55.8521C19.7853 53.7396 18.7282 51.4612 18.0324 49.0828C17.8806 48.5671 17.4541 48.1498 16.8903 47.9709L10.5149 45.9487L10.5094 38.5509L16.8903 36.527C17.4541 36.3481 17.8824 35.9324 18.0324 35.4151C18.7282 33.0368 19.7853 30.7583 21.1732 28.6458C21.475 28.1849 21.5021 27.621 21.2455 27.1392L18.3414 21.6911L24.2073 16.4606L30.3171 19.0501C30.8574 19.2789 31.4899 19.2547 32.0068 18.9856C34.3759 17.7481 36.9311 16.8054 39.5984 16.1851C40.1767 16.0497 40.6447 15.6694 40.8453 15.1667L43.1132 9.48178L51.4096 9.47694L53.6794 15.1667C53.88 15.6694 54.3462 16.0513 54.9263 16.1851C56.6394 16.5831 58.3056 17.1181 59.9067 17.7755L53.2493 23.7118C49.7525 22.8159 46.0534 22.7176 42.488 23.4346C38.5069 24.2355 34.8692 26.0241 31.9706 28.6103C23.5369 36.1306 23.5369 48.3657 31.9706 55.886C36.1053 59.5728 41.6404 61.537 47.2768 61.537C49.917 61.537 52.5825 61.1052 55.1341 60.219C56.0648 59.8951 56.5238 58.9621 56.1605 58.1322C55.7973 57.3024 54.751 56.8931 53.8203 57.217C50.7284 58.2918 47.4394 58.5625 44.2969 58.0936L65.0334 39.6031C65.5647 42.4455 65.2358 45.3831 64.0503 48.095C63.6871 48.9249 64.1479 49.8578 65.0768 50.1817C65.2918 50.2559 65.5141 50.2929 65.7328 50.2929C66.4556 50.2929 67.1387 49.903 67.417 49.2665C69.1428 45.3186 69.3596 40.9711 68.0513 36.9121L74.7068 30.9774C75.4442 32.4051 76.0441 33.8908 76.4905 35.4184C76.6404 35.934 77.0687 36.3514 77.6326 36.5302L77.6344 36.527ZM50.235 26.3995L29.5003 44.8884C28.5841 39.9463 30.2575 34.6933 34.5259 30.8888C38.7111 27.1569 44.5318 25.5391 50.235 26.3995ZM40.3285 57.0719C38.1979 56.2792 36.2191 55.1174 34.5241 53.6059C32.8091 52.0767 31.5152 50.3139 30.637 48.4302L71.8209 11.7071L81.5124 20.3488L40.3303 57.0703L40.3285 57.0719ZM75.0665 10.0441L88.571 5.41468L83.3791 17.4564L75.0647 10.0425L75.0665 10.0441Z" fill="#111213" stroke="#111213" stroke-width="0.4"/>
<path d="M34.9887 56.2905C34.5135 56.2905 34.0472 56.4629 33.7111 56.7627C33.375 57.0624 33.1816 57.4781 33.1816 57.9019C33.1816 58.3257 33.375 58.7414 33.7111 59.0411C34.0472 59.3408 34.5135 59.5133 34.9887 59.5133C35.464 59.5133 35.9302 59.3408 36.2664 59.0411C36.6025 58.7414 36.7959 58.3257 36.7959 57.9019C36.7959 57.4781 36.6025 57.0624 36.2664 56.7627C35.9302 56.4629 35.464 56.2905 34.9887 56.2905Z" fill="#111213" stroke="#111213" stroke-width="0.4"/>
</svg>
