<svg width="100" height="97" viewBox="0 0 100 97" fill="none" xmlns="http://www.w3.org/2000/svg">
<path d="M56.508 95.9986H43.492C41.3817 95.9986 39.6634 94.3343 39.6634 92.2873V86.7474C36.0616 85.8346 32.6249 84.4527 29.4108 82.6256L25.3669 86.5456C23.8739 87.9915 21.4464 87.9915 19.9534 86.5456L10.7502 77.6243C9.25723 76.177 9.25723 73.8225 10.7502 72.3766L14.7941 68.4566C12.9092 65.3408 11.4837 62.0094 10.542 58.5179H4.82858C2.71834 58.5179 1 56.8536 1 54.8066V42.1892C1 40.1436 2.71691 38.4779 4.82858 38.4779H10.5305C11.4694 34.9809 12.892 31.6439 14.7769 28.5226L10.7502 24.6192C9.25723 23.172 9.25723 20.8174 10.7502 19.3716L19.9534 10.4502C21.4464 9.00294 23.8753 9.00294 25.3669 10.4502L29.3806 14.341C32.6034 12.5055 36.0501 11.1181 39.6634 10.2025V4.71133C39.6634 2.66571 41.3803 1 43.492 1H56.508C58.6183 1 60.3366 2.66432 60.3366 4.71133V10.1913C63.9556 11.1042 67.4095 12.4902 70.638 14.3257L74.6331 10.453C76.1261 9.00712 78.555 9.00573 80.0466 10.453L89.2498 19.3743C90.7413 20.8216 90.7413 23.1761 89.2498 24.622L85.2533 28.4947C87.1467 31.6244 88.5765 34.9725 89.5183 38.4807H95.1714C97.2817 38.4807 99 40.145 99 42.192V54.8094C99 56.855 97.2831 58.5207 95.1714 58.5207H89.5053C88.5608 62.0233 87.1295 65.3659 85.236 68.4886L89.2498 72.3794C90.7413 73.8267 90.7413 76.1812 89.2498 77.6271L80.0466 86.5484C78.5536 87.9943 76.1261 87.9957 74.6331 86.5484L70.6065 82.6451C67.3865 84.4722 63.9441 85.8526 60.3366 86.7613V92.2887C60.3366 94.3343 58.6197 96 56.508 96V95.9986ZM29.1251 78.4258C29.4811 78.4258 29.8371 78.5218 30.1544 78.7166C33.7963 80.9696 37.7785 82.5713 41.9918 83.4758C42.8675 83.6637 43.492 84.4165 43.492 85.2877V92.2873H56.508V85.2974C56.508 84.4263 57.1325 83.672 58.011 83.4856C62.2301 82.5852 66.2194 80.9863 69.8657 78.7347C70.6222 78.2672 71.6128 78.3729 72.2473 78.988L77.3391 83.9239L86.5424 75.0025L81.462 70.0778C80.8261 69.4613 80.7184 68.4997 81.2036 67.7663C83.5378 64.229 85.1959 60.359 86.1304 56.2636C86.3242 55.4133 87.1008 54.8094 87.9995 54.8094H95.1714V42.192H88.0095C87.1109 42.192 86.3328 41.5867 86.1404 40.735C85.2102 36.634 83.555 32.7585 81.2208 29.2156C80.7371 28.4822 80.8462 27.5206 81.4807 26.9056L86.5424 21.9989L77.3391 13.0775L72.2774 17.9842C71.6429 18.6006 70.651 18.705 69.8944 18.236C66.2381 15.9747 62.2401 14.3702 58.011 13.4671C57.1339 13.2793 56.508 12.5264 56.508 11.6553V4.71133H43.492V11.6636C43.492 12.5334 42.8675 13.2876 41.9918 13.4755C37.767 14.3828 33.7748 15.9886 30.1257 18.2513C29.3691 18.7203 28.3772 18.6159 27.7412 18.0009L22.6609 13.0761L13.4576 21.9975L18.5495 26.9334C19.184 27.5485 19.2931 28.5086 18.8107 29.242C16.4866 32.778 14.8372 36.6438 13.9098 40.7336C13.716 41.5839 12.9394 42.1906 12.0407 42.1906H4.82858V54.808H12.0494C12.9466 54.808 13.7246 55.4133 13.9184 56.2622C14.8515 60.3465 16.5024 64.2067 18.828 67.7371C19.3117 68.4705 19.2026 69.4321 18.5681 70.0471L13.4576 75.0012L22.6609 83.9225L27.7714 78.9685C28.1403 78.6109 28.6313 78.4244 29.1251 78.4244V78.4258Z" fill="#111213" stroke="#111213" stroke-width="0.3"/>
<path d="M49.9994 75.5755C42.8432 75.5755 35.6871 72.9343 30.2392 67.6533C19.3434 57.0913 19.3434 39.9053 30.2392 29.3433C34.6334 25.0836 40.2061 22.4188 46.3546 21.6395C52.3049 20.8839 58.4519 22.0277 63.66 24.8582C64.5816 25.3592 64.9104 26.4905 64.3936 27.3839C63.8768 28.2773 62.7097 28.596 61.7881 28.095C57.2948 25.6528 51.9905 24.6662 46.8527 25.3188C41.5484 25.9923 36.7408 28.2912 32.9481 31.9678C23.5453 41.0826 23.5453 55.914 32.9481 65.0302C37.6495 69.5876 43.8266 71.8656 50.0008 71.867C56.178 71.867 62.3522 69.589 67.0536 65.0302C74.405 57.9025 76.2253 47.0608 71.5827 38.0517C71.1104 37.1347 71.4937 36.02 72.4398 35.5622C73.3858 35.1044 74.5356 35.4759 75.0079 36.393C80.3883 46.8326 78.2795 59.3957 69.761 67.6533C64.3132 72.9343 57.157 75.5755 50.0008 75.5755H49.9994Z" fill="#111213" stroke="#111213" stroke-width="0.3"/>
<path d="M68.8237 32.9153C68.762 32.9153 68.6988 32.9125 68.6357 32.9056C68.5739 32.9 68.5108 32.8917 68.4505 32.8791C68.3285 32.8555 68.2079 32.8193 68.0916 32.7734C67.9768 32.7275 67.8648 32.669 67.7614 32.6022C67.7098 32.5688 67.6581 32.5326 67.6107 32.4951C67.5619 32.4561 67.5145 32.4144 67.47 32.3712C67.4269 32.3295 67.3839 32.2836 67.3437 32.2362C67.3049 32.1889 67.2676 32.1402 67.2332 32.0901C67.1642 31.9885 67.104 31.8814 67.0566 31.7701C67.0092 31.6573 66.9719 31.5405 66.9475 31.4222C66.9346 31.3637 66.9259 31.3025 66.9188 31.2427C66.913 31.1814 66.9102 31.1202 66.9102 31.0604C66.9102 31.0005 66.913 30.9379 66.9188 30.8781C66.9259 30.8168 66.9346 30.757 66.9475 30.6972C66.9719 30.5789 67.0092 30.462 67.0566 30.3507C67.104 30.2379 67.1642 30.1308 67.2332 30.0306C67.2676 29.9791 67.3049 29.9304 67.3437 29.8831C67.3839 29.8358 67.4269 29.7912 67.47 29.7481C67.5145 29.705 67.5619 29.6632 67.6107 29.6256C67.6581 29.5867 67.7098 29.5505 67.7614 29.5171C67.8648 29.4503 67.9768 29.3933 68.0916 29.3473C68.2079 29.3 68.3285 29.2652 68.4505 29.2402C68.5108 29.229 68.5739 29.2193 68.6357 29.2137C68.7606 29.2012 68.8869 29.2012 69.0118 29.2137C69.0735 29.2193 69.1367 29.229 69.1984 29.2402C69.3204 29.2652 69.441 29.3 69.5559 29.3473C69.6721 29.3933 69.7827 29.4503 69.886 29.5171C69.9391 29.5505 69.9894 29.5867 70.0382 29.6256C70.0856 29.6632 70.1329 29.705 70.1774 29.7481C70.2219 29.7912 70.2636 29.8358 70.3038 29.8831C70.3425 29.9304 70.3813 29.9791 70.4157 30.0306C70.4846 30.1308 70.5435 30.2379 70.5909 30.3507C70.6397 30.462 70.6756 30.5789 70.7 30.6972C70.7129 30.757 70.723 30.8168 70.7287 30.8781C70.7344 30.9379 70.7387 30.9991 70.7387 31.0604C70.7387 31.1216 70.7344 31.1814 70.7287 31.2427C70.723 31.3025 70.7129 31.3637 70.7 31.4222C70.6756 31.5405 70.6397 31.6573 70.5909 31.7701C70.5435 31.8814 70.4846 31.9899 70.4157 32.0901C70.3813 32.1402 70.3425 32.1889 70.3038 32.2362C70.2636 32.2836 70.2219 32.3295 70.1774 32.3712C70.1329 32.4144 70.0856 32.4561 70.0382 32.4951C69.9894 32.5326 69.9391 32.5688 69.886 32.6022C69.7827 32.669 69.6721 32.7275 69.5559 32.7734C69.441 32.8193 69.3204 32.8555 69.1984 32.8791C69.1367 32.8917 69.0749 32.9 69.0118 32.9056C68.9501 32.9125 68.8869 32.9153 68.8237 32.9153Z" fill="#111213" stroke="#111213" stroke-width="0.3"/>
<path d="M47.2993 62.167C46.8097 62.167 46.3202 61.9861 45.9456 61.6229L33.8411 49.8891C33.4822 49.5412 33.2798 49.0695 33.2798 48.5769C33.2798 48.0843 33.4808 47.6125 33.8411 47.2646L40.7073 40.6087C41.4552 39.8837 42.6668 39.8837 43.4147 40.6087L47.3007 44.3757L56.5886 35.3722C56.9475 35.0243 57.4342 34.8281 57.9424 34.8281C58.4505 34.8281 58.9372 35.0229 59.2961 35.3722L66.1608 42.0281C66.9087 42.7531 66.9087 43.9276 66.1608 44.6526L48.6544 61.6229C48.2812 61.9847 47.7902 62.167 47.3007 62.167H47.2993ZM37.9022 48.5783L47.2993 57.6875L62.0997 43.3404L57.9409 39.309L48.653 48.3125C47.9051 49.0375 46.6935 49.0375 45.9456 48.3125L42.0595 44.5455L37.9008 48.5769L37.9022 48.5783Z" fill="#111213" stroke="#111213" stroke-width="0.3"/>
</svg>
